<?xml version="1.0" standalone="no"?>
<!DOCTYPE svg PUBLIC "-//W3C//DTD SVG 20010904//EN"
 "http://www.w3.org/TR/2001/REC-SVG-20010904/DTD/svg10.dtd">
<svg version="1.0" xmlns="http://www.w3.org/2000/svg"
 width="84.000000pt" height="84.000000pt" viewBox="0 0 84.000000 84.000000"
 preserveAspectRatio="xMidYMid meet">
<metadata>
Created by potrace 1.14, written by Peter Selinger 2001-2017
</metadata>
<g transform="translate(0.000000,84.000000) scale(0.100000,-0.100000)"
fill="#000000" stroke="none">
<path d="M0 409 c0 -284 3 -360 12 -357 10 4 14 87 16 361 2 313 0 357 -13
357 -13 0 -15 -45 -15 -361z"/>
<path d="M670 756 c0 -8 27 -85 60 -172 33 -86 60 -163 60 -171 0 -8 -27 -85
-60 -170 -62 -161 -70 -193 -46 -193 13 0 146 331 146 364 0 11 -72 205 -125
339 -9 21 -35 23 -35 3z"/>
<path d="M219 722 l-45 -3 -26 -79 c-14 -44 -22 -82 -18 -85 5 -3 22 20 37 52
33 68 57 83 134 83 l57 0 -49 -192 c-27 -106 -53 -203 -59 -215 -7 -17 -19
-23 -56 -25 -27 -2 -49 -8 -52 -16 -3 -10 25 -12 132 -10 82 2 136 7 136 13 0
6 -17 11 -37 13 -21 2 -41 6 -45 10 -4 4 16 99 45 212 l52 205 61 3 c81 4 98
-11 90 -79 -3 -26 -2 -50 3 -54 16 -9 19 1 37 138 4 26 2 27 -49 28 -28 0
-108 1 -177 2 -69 1 -145 1 -171 -1z"/>
</g>
</svg>
